{"title":"Lady Gaga - Live on GMA (2011-05-27 1080p HDTV).avi","uid":6433407,"size":1518503298,"categoryP":"video","categoryS":"music_videos","magnet":"?xt=urn:btih:81a128f36b8f3f082ddc97a3115dbb384ce172b1&amp;dn=Lady+Gaga+-+Live+on+GMA+%282011-05-27+1080p+HDTV%29.avi&amp;tr=udp%3A%2F%2Ftracker.openbittorrent.com%3A80&amp;tr=udp%3A%2F%2Fopen.demonii.com%3A1337&amp;tr=udp%3A%2F%2Ftracker.coppersurfer.tk%3A6969&amp;tr=udp%3A%2F%2Fexodus.desync.com%3A6969","seeders":1,"leechers":0,"uploader":"wushan","files":1,"time":1306737591,"description":"Lady Gaga - Live on GMA (2011-05-27 1080i HDTV) \n\n      # The Edge Of Glory.\n \n      # Judas.\n\n      # Born This Way.\n\n      # Hair\n\n      Format : AVI\n      Format/Info : Audio Video Interleave\n      Format profile : OpenDML\n      File size : 1.41 GiB\n      Duration : 37mn 45s\n      Overall bit rate : 5 362 Kbps\n      Writing application : Lavf51.12.1\n   Video #0\n      ID : 0\n      Format : MPEG-4 Visual\n      Codec ID : DIV3\n      Codec ID/Hint : DivX 3 Low\n      Duration : 37mn 45s\n      Bit rate : 5 271 Kbps\n      Width : 1 920 pixels\n      Height : 1 080 pixels\n      Display aspect ratio : 16:9\n      Frame rate : 29.970 fps\n      Resolution : 24 bits\n      Bits/(Pixel*Frame) : 0.085\n      Stream size : 1.39 GiB (98%)\n   Audio #1\n      ID : 1\n      Format : MPEG Audio\n      Format version : Version 1\n      Format profile : Layer 3\n      Codec ID : 55\n      Codec ID/Hint : MP3\n      Duration : 16mn 34s\n      Bit rate mode : Constant\n      Bit rate : 192 Kbps\n      Channel(s) : 2 channels\n      Sampling rate : 44.1 KHz\n      Resolution : 16 bits\n      Stream size : 22.8 MiB (2%)\n      Alignment : Aligned on interleaves\n      Interleave, duration : 26 ms (0.78 video frame)\n      Interleave, preload duration : 26 ms","torrent":{"xt":"urn:btih:81a128f36b8f3f082ddc97a3115dbb384ce172b1","amp;dn":"Lady+Gaga+-+Live+on+GMA+%282011-05-27+1080p+HDTV%29.avi","amp;tr":["udp%3A%2F%2Ftracker.openbittorrent.com%3A80","udp%3A%2F%2Fopen.demonii.com%3A1337","udp%3A%2F%2Ftracker.coppersurfer.tk%3A6969","udp%3A%2F%2Fexodus.desync.com%3A6969"],"infoHash":"81a128f36b8f3f082ddc97a3115dbb384ce172b1","infoHashBuffer":{"type":"Buffer","data":[129,161,40,243,107,143,63,8,45,220,151,163,17,93,187,56,76,225,114,177]},"announce":[],"urlList":[]}}